<?xml version="1.0" encoding="UTF-8"?>
<svg version="1.1" xmlns="http://www.w3.org/2000/svg" width="48" height="48">
<path d="M0 0 C3.98042168 0.58809834 6.86247219 1.82031677 10.3125 3.875 C11.19550781 4.38804687 12.07851563 4.90109375 12.98828125 5.4296875 C13.65214844 5.94789062 14.31601562 6.46609375 15 7 C15 7.99 15 8.98 15 10 C12.6889639 11.33592797 10.37628245 12.66884431 8.0625 14 C7.40314453 14.3815625 6.74378906 14.763125 6.06445312 15.15625 C1.11328125 18 1.11328125 18 0 18 C0 16.35 0 14.7 0 13 C-6.60929383 14.00413308 -10.79229827 15.78951775 -16 20 C-12.30355207 23.82391165 -9.70792213 26.15583286 -4.3125 26.625 C-3.50425781 26.69976563 -2.69601563 26.77453125 -1.86328125 26.8515625 C-1.24839844 26.90054687 -0.63351563 26.94953125 0 27 C0 26.01 0 25.02 0 24 C4.06225548 24.57823096 6.84762346 25.89117737 10.3125 28.0625 C11.19550781 28.61035156 12.07851563 29.15820312 12.98828125 29.72265625 C13.65214844 30.14417969 14.31601562 30.56570312 15 31 C13.8433323 34.47000311 13.14273284 34.84701459 10.125 36.6875 C9.42632812 37.12449219 8.72765625 37.56148437 8.0078125 38.01171875 C6 39 6 39 3 39 C3 39.66 3 40.32 3 41 C2.01 41.33 1.02 41.66 0 42 C0 40.68 0 39.36 0 38 C-0.64066406 37.96261719 -1.28132813 37.92523438 -1.94140625 37.88671875 C-10.71259532 37.22005609 -16.60687168 34.37399242 -23.77734375 29.4296875 C-26.7391773 27.52453622 -29.71690927 26.25735389 -33 25 C-33 21.7 -33 18.4 -33 15 C-31.3767313 14.3291288 -29.75132422 13.66342971 -28.125 13 C-27.22007813 12.62875 -26.31515625 12.2575 -25.3828125 11.875 C-23 11 -23 11 -21 11 C-21 10.34 -21 9.68 -21 9 C-20.01 9 -19.02 9 -18 9 C-18 8.34 -18 7.68 -18 7 C-11.71546794 3.67202085 -7.11341265 2.54835475 0 3 C0 2.01 0 1.02 0 0 Z " fill="#93A2B8" transform="translate(33,3)"/>
</svg>
