<svg version="1.1" id="Layer_1" xmlns="http://www.w3.org/2000/svg" xmlns:xlink="http://www.w3.org/1999/xlink" x="0px" y="0px"
	 width="100%" viewBox="0 0 201 201" enable-background="new 0 0 201 201" xml:space="preserve">
<path fill="#F54F35" opacity="1.000000" stroke="none" 
	d="
M137.000000,202.000000 
	C92.500000,202.000000 48.499901,201.962265 4.500238,202.083511 
	C1.517071,202.091751 0.912525,201.482437 0.917522,198.499878 
	C1.025859,133.833389 1.025859,69.166641 0.917529,4.500158 
	C0.912533,1.517699 1.517545,0.912523 4.500118,0.917520 
	C69.166595,1.025859 133.833359,1.025854 198.499832,0.917532 
	C201.482269,0.912536 202.087479,1.517501 202.082489,4.500106 
	C201.974136,69.166580 201.974152,133.833344 202.082458,198.499817 
	C202.087463,201.482208 201.485992,202.110962 198.499344,202.086655 
	C178.167343,201.921097 157.833344,202.000000 137.000000,202.000000 
z"/>
<path fill="#FFFCFB" opacity="1.000000" stroke="none" 
	d="
M122.796219,67.358078 
	C115.302505,57.750866 105.912155,53.829113 94.393127,57.082462 
	C83.397820,60.187893 77.152084,67.896385 75.441063,79.194527 
	C73.295448,93.362404 85.451363,107.585716 100.047783,107.973938 
	C104.043602,108.080215 108.048576,108.100792 112.041687,107.953247 
	C114.399513,107.866112 115.098709,108.675179 115.238754,111.056976 
	C116.000633,124.014633 116.072243,124.010422 102.928024,124.008453 
	C80.160210,124.005051 62.841732,109.485725 59.726765,87.789711 
	C56.611115,66.088943 71.189827,45.217800 92.437744,40.960083 
	C114.771797,36.484726 136.239136,49.511539 141.949326,71.014893 
	C142.807343,74.245972 143.209839,77.526566 143.198196,80.885941 
	C143.151474,94.381104 143.361893,107.879623 143.133316,121.371071 
	C142.839966,138.686447 134.506226,151.364380 119.065857,158.638351 
	C103.540176,165.952515 88.656952,163.589066 75.033852,153.090652 
	C72.493515,151.132996 71.988434,149.542404 74.816101,147.579880 
	C75.084183,147.393845 75.274704,147.098831 75.512383,146.865784 
	C77.888474,144.535858 79.895821,141.273987 82.748314,140.141129 
	C85.639153,138.993042 87.853104,142.814133 90.582222,144.110672 
	C106.149826,151.506485 125.411507,141.407379 126.966042,124.192154 
	C128.313065,109.274872 127.661194,94.241776 127.170547,79.261353 
	C127.030693,74.991287 125.301537,71.202179 122.796219,67.358078 
z"/>
</svg>