<svg viewBox="0 0 64 64" fill="none" xmlns="http://www.w3.org/2000/svg">
<rect rx="32" fill="white"/>
<path fill-rule="evenodd" clip-rule="evenodd" d="M23.8098 10.1799C24.2418 10.3499 24.6318 10.6299 24.9858 10.9999C25.5758 11.6119 26.0738 12.4879 26.4538 13.5259C26.8358 14.5699 27.0838 15.7259 27.1778 16.8859C28.4371 16.1735 29.8345 15.7398 31.2758 15.6139L31.3778 15.6059C33.1178 15.4659 34.8378 15.7799 36.3378 16.5539C36.5398 16.6599 36.7378 16.7739 36.9318 16.8939C37.0318 15.7559 37.2758 14.6259 37.6518 13.6059C38.0318 12.5659 38.5298 11.6919 39.1178 11.0779C39.4464 10.7225 39.8484 10.4427 40.2958 10.2579C40.8098 10.0579 41.3558 10.0219 41.8878 10.1739C42.6898 10.4019 43.3778 10.9099 43.9198 11.6479C44.4158 12.3219 44.7878 13.1859 45.0418 14.2219C45.5018 16.0899 45.5818 18.5479 45.2718 21.5119L45.3778 21.5919L45.4298 21.6299C46.9438 22.7819 47.9978 24.4239 48.5558 26.3299C49.4258 29.3039 48.9878 32.6399 47.4878 34.5059L47.4518 34.5479L47.4558 34.5539C48.2898 36.0779 48.7958 37.6879 48.9038 39.3539L48.9078 39.4139C49.0358 41.5439 48.5078 43.6879 47.2798 45.7939L47.2658 45.8139L47.2858 45.8619C48.2298 48.1759 48.5258 50.5059 48.1618 52.8339L48.1498 52.9119C48.0934 53.252 47.9045 53.5558 47.6244 53.7568C47.3444 53.9577 46.996 54.0394 46.6558 53.9839C46.4874 53.9576 46.3258 53.8984 46.1802 53.8095C46.0347 53.7206 45.9082 53.6039 45.8079 53.4661C45.7075 53.3282 45.6354 53.1719 45.5956 53.0061C45.5558 52.8403 45.5491 52.6683 45.5758 52.4999C45.9098 50.4339 45.5958 48.3619 44.6158 46.2539C44.5244 46.0581 44.4838 45.8424 44.4978 45.6267C44.5118 45.411 44.5799 45.2023 44.6958 45.0199L44.7038 45.0079C45.9118 43.1599 46.4118 41.3479 46.3038 39.5679C46.2118 38.0099 45.6538 36.4799 44.7038 35.0219C44.5191 34.7385 44.4532 34.3937 44.5206 34.0621C44.588 33.7306 44.7831 33.4388 45.0638 33.2499L45.0818 33.2379C45.5678 32.9199 46.0158 32.1079 46.2418 30.9979C46.4912 29.6854 46.4261 28.3325 46.0518 27.0499C45.6418 25.6499 44.8918 24.4819 43.8418 23.6839C42.6518 22.7759 41.0758 22.3379 39.0818 22.4639C38.8211 22.4809 38.5613 22.4192 38.3359 22.287C38.1106 22.1547 37.9301 21.9579 37.8178 21.7219C37.1898 20.3919 36.2738 19.4399 35.1318 18.8499C34.0354 18.3027 32.8079 18.0728 31.5878 18.1859C29.0978 18.3839 26.9018 19.7879 26.2478 21.5579C26.1553 21.8071 25.9889 22.022 25.7708 22.1739C25.5528 22.3258 25.2936 22.4074 25.0278 22.4079C22.8938 22.4119 21.2418 22.9119 20.0338 23.8139C18.9898 24.5939 18.2778 25.6839 17.9018 26.9899C17.5616 28.2193 17.515 29.5113 17.7658 30.7619C17.9898 31.8779 18.4278 32.8019 18.9298 33.2999L18.9458 33.3139C19.3698 33.7279 19.4598 34.3739 19.1638 34.8839C18.4438 36.1279 17.9058 37.9819 17.8178 39.7639C17.7178 41.7999 18.1898 43.5679 19.2558 44.8359L19.2878 44.8739C19.4487 45.0614 19.5522 45.2913 19.5859 45.536C19.6196 45.7807 19.582 46.03 19.4778 46.2539C18.3258 48.7259 17.9718 50.7579 18.3538 52.3579C18.4225 52.6906 18.3586 53.037 18.1758 53.3233C17.9929 53.6096 17.7056 53.8133 17.3748 53.891C17.0441 53.9686 16.6962 53.9142 16.405 53.7392C16.1138 53.5642 15.9024 53.2824 15.8158 52.9539C15.3298 50.9179 15.6598 48.5859 16.7618 45.9579L16.7898 45.8879L16.7738 45.8639C16.2322 45.0639 15.828 44.1791 15.5778 43.2459L15.5678 43.2079C15.2642 42.0437 15.1448 40.8391 15.2138 39.6379C15.3018 37.8179 15.7698 35.9539 16.4578 34.4579L16.4818 34.4059L16.4778 34.4019C15.8918 33.5659 15.4578 32.4959 15.2178 31.3119L15.2078 31.2639C14.8772 29.6124 14.9409 27.9062 15.3938 26.2839C15.9178 24.4539 16.9478 22.8819 18.4658 21.7459C18.5858 21.6559 18.7118 21.5659 18.8378 21.4819C18.5198 18.4959 18.5998 16.0219 19.0618 14.1419C19.3158 13.1059 19.6898 12.2419 20.1858 11.5679C20.7258 10.8319 21.4138 10.3239 22.2158 10.0939C22.7478 9.94194 23.2958 9.97594 23.8098 10.1779V10.1799ZM32.0418 28.3599C33.9138 28.3599 35.6418 28.9859 36.9338 30.0699C38.1938 31.1239 38.9438 32.5399 38.9438 33.9499C38.9438 35.7259 38.1318 37.1099 36.6778 37.9939C35.4378 38.7439 33.7758 39.1079 31.8718 39.1079C29.8538 39.1079 28.1298 38.5899 26.8858 37.6399C25.6518 36.6999 24.9598 35.3799 24.9598 33.9499C24.9598 32.5359 25.7558 31.1159 27.0718 30.0579C28.4078 28.9839 30.1718 28.3599 32.0418 28.3599ZM32.0418 30.1519C30.6543 30.1398 29.3036 30.5981 28.2098 31.4519C27.2878 32.1919 26.7658 33.1219 26.7658 33.9519C26.7658 34.8079 27.1858 35.6099 27.9858 36.2199C28.8958 36.9139 30.2338 37.3159 31.8718 37.3159C33.4698 37.3159 34.8178 37.0219 35.7358 36.4639C36.6618 35.9039 37.1358 35.0919 37.1358 33.9499C37.1358 33.1039 36.6438 32.1699 35.7698 31.4379C34.8018 30.6279 33.4898 30.1519 32.0418 30.1519ZM33.3658 32.5719L33.3738 32.5799C33.6138 32.8819 33.5638 33.3199 33.2618 33.5599L32.6778 34.0199V34.9119C32.6768 35.1105 32.597 35.3005 32.456 35.4404C32.3151 35.5802 32.1244 35.6585 31.9258 35.6579C31.7273 35.6585 31.5366 35.5802 31.3956 35.4404C31.2546 35.3005 31.1749 35.1105 31.1738 34.9119V33.9919L30.6318 33.5559C30.5603 33.4986 30.5009 33.4278 30.4569 33.3474C30.413 33.267 30.3853 33.1787 30.3757 33.0876C30.366 32.9965 30.3745 32.9044 30.4006 32.8166C30.4267 32.7287 30.4699 32.647 30.5278 32.5759C30.6459 32.4322 30.8159 32.3409 31.0009 32.3218C31.1858 32.3027 31.3709 32.3574 31.5158 32.4739L31.9458 32.8179L32.3858 32.4699C32.5302 32.3558 32.7135 32.3027 32.8966 32.3217C33.0796 32.3408 33.248 32.4306 33.3658 32.5719ZM23.2858 28.7339C24.2418 28.7339 25.0198 29.5139 25.0198 30.4759C25.0204 30.9371 24.8378 31.3796 24.5123 31.7062C24.1868 32.0328 23.745 32.2169 23.2838 32.2179C22.8234 32.2164 22.3824 32.0323 22.0573 31.7062C21.7323 31.38 21.5498 30.9384 21.5498 30.4779C21.5488 30.0168 21.7308 29.5741 22.0559 29.2471C22.3811 28.9201 22.8247 28.7355 23.2858 28.7339ZM40.6978 28.7339C41.6578 28.7339 42.4338 29.5139 42.4338 30.4759C42.4344 30.9371 42.2518 31.3796 41.9263 31.7062C41.6008 32.0328 41.159 32.2169 40.6978 32.2179C40.2374 32.2164 39.7964 32.0323 39.4713 31.7062C39.1463 31.38 38.9638 30.9384 38.9638 30.4779C38.9628 30.0168 39.1448 29.5741 39.4699 29.2471C39.7951 28.9201 40.2367 28.7355 40.6978 28.7339ZM22.8798 12.5999L22.8738 12.6039C22.6421 12.7047 22.4443 12.8699 22.3038 13.0799L22.2938 13.0919C22.0178 13.4699 21.7778 14.0259 21.5978 14.7559C21.2578 16.1399 21.1658 18.0179 21.3498 20.3199C22.2098 20.0639 23.1478 19.9039 24.1578 19.8459L24.1778 19.8439L24.2158 19.7759C24.3078 19.6119 24.4058 19.4539 24.5118 19.2979C24.7578 17.7559 24.5558 15.9139 24.0058 14.4099C23.7378 13.6819 23.4118 13.1099 23.0998 12.7839C23.0354 12.7162 22.9636 12.6558 22.8858 12.6039L22.8798 12.5999ZM41.2278 12.6799L41.2238 12.6819C41.146 12.7338 41.0742 12.7942 41.0098 12.8619C40.6978 13.1879 40.3698 13.7619 40.1038 14.4899C39.5238 16.0779 39.3298 18.0419 39.6438 19.6339L39.7598 19.8279L39.7758 19.8559H39.8358C40.8284 19.8562 41.8158 19.999 42.7678 20.2799C42.9398 18.0319 42.8438 16.1939 42.5118 14.8359C42.3318 14.1059 42.0918 13.5499 41.8138 13.1719L41.8058 13.1599C41.6657 12.9492 41.4678 12.7832 41.2358 12.6819H41.2278V12.6799Z" fill="black"/>
</svg>
