<svg  viewBox="0 0 86 87" fill="none" xmlns="http://www.w3.org/2000/svg">
<path d="M77.6237 36.1C79.4237 30.6 78.8237 24.5 75.9237 19.5C71.5237 11.8 62.6237 7.9 53.9237 9.7C50.1237 5.4 44.5237 3 38.7237 3C29.8237 3 22.0237 8.7 19.2237 17.1C13.5237 18.3 8.62369 21.8 5.72369 26.9C1.32369 34.6 2.32369 44.2 8.22369 50.8C6.42369 56.4 7.12369 62.4 10.0237 67.4C14.4237 75.1 23.3237 79.1 32.0237 77.2C35.9237 81.5 41.4237 84 47.2237 84C56.1237 84 63.9237 78.3 66.7237 69.9C72.4237 68.7 77.3237 65.2 80.2237 60.1C84.6237 52.4 83.6237 42.7 77.6237 36.1ZM47.2237 78.7C43.6237 78.7 40.2237 77.5 37.5237 75.2C37.6237 75.1 37.9237 75 38.0237 74.9L54.1237 65.6C54.9237 65.1 55.4237 64.3 55.4237 63.3V40.6L62.2237 44.5C62.3237 44.5 62.3237 44.6 62.3237 44.7V63.5C62.4237 71.9 55.6237 78.7 47.2237 78.7ZM14.6237 64.8C12.8237 61.7 12.2237 58.1 12.8237 54.6C12.9237 54.7 13.1237 54.8 13.3237 54.9L29.4237 64.2C30.2237 64.7 31.2237 64.7 32.0237 64.2L51.7237 52.8V60.7C51.7237 60.8 51.7237 60.9 51.6237 60.9L35.3237 70.3C28.1237 74.5 18.8237 72 14.6237 64.8ZM10.4237 29.6C12.2237 26.5 15.0237 24.2 18.3237 22.9V42.1C18.3237 43 18.8237 43.9 19.6237 44.4L39.3237 55.8L32.5237 59.7C32.4237 59.7 32.3237 59.8 32.3237 59.7L16.0237 50.3C8.62369 46.1 6.22369 36.8 10.4237 29.6ZM66.4237 42.6L46.7237 31.2L53.5237 27.3C53.6237 27.3 53.7237 27.2 53.7237 27.3L70.0237 36.7C77.3237 40.9 79.7237 50.2 75.5237 57.4C73.7237 60.5 70.9237 62.8 67.6237 64V44.9C67.7237 44 67.2237 43.1 66.4237 42.6ZM73.1237 32.4C73.0237 32.3 72.8237 32.2 72.6237 32.1L56.5237 22.8C55.7237 22.3 54.7237 22.3 53.9237 22.8L34.2237 34.2V26.3C34.2237 26.2 34.2237 26.1 34.3237 26.1L50.6237 16.7C57.9237 12.5 67.1237 15 71.3237 22.3C73.1237 25.3 73.7237 28.9 73.1237 32.4ZM30.5237 46.4L23.7237 42.5C23.6237 42.5 23.6237 42.4 23.6237 42.3V23.5C23.6237 15.1 30.4237 8.3 38.8237 8.3C42.4237 8.3 45.8237 9.5 48.5237 11.8C48.4237 11.9 48.2237 12 48.0237 12.1L31.9237 21.4C31.1237 21.9 30.6237 22.7 30.6237 23.7V46.4H30.5237ZM34.2237 38.4L43.0237 33.3L51.8237 38.4V48.5L43.0237 53.6L34.2237 48.5V38.4Z" fill="black"/>
</svg>
