<?xml version="1.0" encoding="UTF-8" standalone="no"?>
<!DOCTYPE svg PUBLIC "-//W3C//DTD SVG 1.1//EN" "http://www.w3.org/Graphics/SVG/1.1/DTD/svg11.dtd">
<svg xmlns="http://www.w3.org/2000/svg" version="1.1" viewBox="0.00 0.00 16.00 16.00">
<path stroke="#388971" stroke-width="2.00" fill="none" stroke-linecap="butt" vector-effect="non-scaling-stroke" d="
  M 7.65 6.05
  L 6.56 3.79
  A 1.90 1.90 0.0 0 0 4.01 2.92
  L 3.78 3.03
  A 1.85 1.85 0.0 0 0 2.95 5.49
  L 6.25 12.25
  A 1.92 1.92 0.0 0 0 9.70 12.26
  L 12.96 5.67
  Q 13.73 4.12 12.32 3.12
  Q 12.07 2.94 11.75 2.88
  Q 10.06 2.55 9.30 4.09
  L 8.33 6.05
  Q 7.99 6.73 7.65 6.05"
/>
<path fill="#121418" d="
  M 0.00 0.00
  L 16.00 0.00
  L 16.00 16.00
  L 0.00 16.00
  L 0.00 0.00
  Z
  M 7.65 6.05
  L 6.56 3.79
  A 1.90 1.90 0.0 0 0 4.01 2.92
  L 3.78 3.03
  A 1.85 1.85 0.0 0 0 2.95 5.49
  L 6.25 12.25
  A 1.92 1.92 0.0 0 0 9.70 12.26
  L 12.96 5.67
  Q 13.73 4.12 12.32 3.12
  Q 12.07 2.94 11.75 2.88
  Q 10.06 2.55 9.30 4.09
  L 8.33 6.05
  Q 7.99 6.73 7.65 6.05
  Z"
/>
<path fill="#5dfeca" d="
  M 8.33 6.05
  L 9.30 4.09
  Q 10.06 2.55 11.75 2.88
  Q 12.07 2.94 12.32 3.12
  Q 13.73 4.12 12.96 5.67
  L 9.70 12.26
  A 1.92 1.92 0.0 0 1 6.25 12.25
  L 2.95 5.49
  A 1.85 1.85 0.0 0 1 3.78 3.03
  L 4.01 2.92
  A 1.90 1.90 0.0 0 1 6.56 3.79
  L 7.65 6.05
  Q 7.99 6.73 8.33 6.05
  Z"
/>
</svg>
